<?xml version="1.0" encoding="UTF-8"?>
<svg id="Camada_1" xmlns="http://www.w3.org/2000/svg" version="1.1" viewBox="0 0 1600 612">
  <!-- Generator: Adobe Illustrator 30.1.0, SVG Export Plug-In . SVG Version: 2.1.1 Build 109)  -->
  <defs>
    <style>
      .st0 {
        fill: red;
      }
    </style>
  </defs>
  <path class="st0" d="M334.95,389.84c-19.53-7.35-38.94-12.67-59.72-16.29l-88.51-15.43c-19.54-3.41-38.02-7.46-56.86-13.14-8.8-2.65-34.88-12.09-37.1-21.25-3.67-15.16,8.37-30.54,19.16-39.91,29.25,13.29,72.78,17.64,104.12,15.14,28.62-2.28,55.19-12.96,78.42-29.39,24.02-16.98,42.39-39.98,52.9-67.43,7.22-18.84,8.54-38.15,7.57-58.23-1.06-26.32-8.11-50.86-23.25-72.84l70.94,11.37,16.52-75.37c-22,.22-42.64,1.85-64.2,4.69-19.22,3.08-37.31,7.44-55.62,12.76l-31.92-12.98c-18.37-7.47-37.57-9.4-55.4-11.55h-29c-42.07,3.72-83.73,13.33-116.45,43.46C28.04,78.92,18.96,127.17,27.27,177.53c5.93,35.9,25.53,61.82,54.4,83.59-27.05,11.04-56.88,30.04-65.42,59.13-10.04,34.19,7.42,67.03,36.81,82.66l28.99,15.41c-30.13,17.97-54.49,31.66-71.42,63.34-6.04,11.31-9.07,23.11-10.62,35.34v17c7.91,59.48,86.85,73.26,136.31,76.59,4.47.3,18.41.14,16.69,1.41h40c-.19-.09,1.54-.86,2.12-.88l16.56-.55c36.03-1.21,71.12-7.82,104.85-20.77,50.86-19.54,84.28-58.56,83.9-114.78-.3-43.77-26.37-70.45-65.48-85.18ZM191.42,65.65l53.99,150.57c-19.32-12.22-34.8-26.09-53.77-39.69l-54.07,39.68,53.85-150.57ZM283.56,539.94c-27.15,16.95-64.56,19.77-95.61,20.65-29.06.82-57.75-8.55-78.76-28.66-7.98-7.64-15.06-17.22-16.43-28.28-3.08-24.73,7.94-56.08,28.21-71.32l41.26,5.61c34.48,4.69,67.68,12.75,101.27,21.63,13.21,3.49,42.09,14.03,44.64,28.96,3.52,20.67-6.72,40.27-24.57,51.41Z"/>
  <path class="st0" d="M1011.1,376.01c-1.11-5.58-1.61-11.09-1.62-17.08l-.04-119.85c-.01-39.47-28.41-65.51-64.64-75.08-51.69-13.65-111.5-2.13-151.29,34.57l32.95,37.86,23.37-19.58c19.53-14.24,43.87-19.23,67.33-12.7,25.19,7.02,31.33,32.66,29.11,55.56-39.51.33-83.5,3.35-117.61,22.69-23.03,13.06-37.97,35.19-41.11,61.52-4.3,36.13,6.52,71,43.83,82.85,14.81,4.7,29.53,5.23,45.66,3.9,27.48-2.26,52-12.95,72.14-31.6,3.8,16.92,16.43,28.09,33.14,30.96,24.59,4.23,49.27-2.33,70.38-16.27l-6.61-27.97c-12.05,1.69-31.63,7.07-35.01-9.8ZM878.18,385.85c-10.69-1.33-18.55-7.79-22.43-18.14-6.23-24.53-1.68-50.34,21.22-63.73,9.74-5.32,19.85-8.6,30.73-11.2,12.99-2.27,25.44-3.66,38.84-4.23l.04,79.37c-19.74,14.47-44.02,20.95-68.4,17.93Z"/>
  <path class="st0" d="M625.51,162.55l-62.89.02v201.64c-20.75,13.27-54.76,20.11-77.98,18.07-19.88-1.74-30.79-16.85-31.57-36.43l-.04-183.34-62.94.12v178.26c.67,36.84,12.22,70.6,49.45,83.67,43.34,15.21,90.38,1.92,125.12-26.92l7.13,28.61,59.45-.02c-1.79-14.82-5.52-28.11-5.54-42.75l-.2-220.92Z"/>
  <polygon class="st0" points="683.53 162.8 683.54 426.29 746.42 425.87 746.41 162.54 683.53 162.8"/>
  <path class="st0" d="M718.07,45.45c-14.14-.98-26.94,5.9-33.29,17.35-6.91,12.44-5.59,27.08,2.84,38.43,9.14,12.31,24.1,17.86,38.66,13.05,13.25-4.38,22.82-16.66,23.52-31.92.91-19.71-12.51-35.57-31.72-36.9Z"/>
  <path class="st0" d="M1332.45,416.18c-3.81.38-8.4,1.33-10.83-1.78-1.83-2.34-2.55-7.07-2.55-10.34l-.11-49.16c-.03-12.15-7.72-22.28-19.67-25.32-17.21-4.37-35.3.08-49.19,11.42,2.5,3.55,4.79,6.48,7.58,9.68,9.98-7.94,20.1-12.77,32.28-11.39,5.71.65,11.62,3.56,13.38,9.33,1.78,5.83,1.8,12.11,1.46,18.36-25.09-.06-62.89,7.11-59.55,39.84,1.1,10.72,8.07,18.51,18.99,20.4,16.06,2.77,30.6-4.08,41.88-15.91,1.17,7.99,3.71,14.34,10.82,16,6.07,1.41,13.17-.67,18.02-4.31.06-2.3-1.22-5.93-2.5-6.83ZM1277.54,415.36c-5.95.02-12.09-1.16-14.74-6.08-5.58-10.38-.42-22.23,9.88-27.45,10.01-5.07,20.77-6.72,32.26-6.76v28.86c-7.9,6.25-16.6,10.62-27.4,11.43Z"/>
  <path class="st0" d="M1179.99,414.99c-2.43-2.43-3.1-7.32-3.11-10.91l-.2-49.87c-.05-12.09-8.27-21.99-20.2-24.81-17.08-4.04-34.79.45-48.56,11.6,2.59,3.65,4.92,6.65,7.61,9.74,10-8.23,20.29-12.72,32.39-11.45,7.53.79,13.51,5.63,14.3,13.34.49,4.77.48,9.82.28,14.39-25.83-.04-62.83,7.44-59.42,39.94,1.09,10.4,7.74,18.11,18.32,20.14,16.17,3.09,31.22-3.72,42.31-15.71,1.69,8.72,4.21,14.05,11.17,16.16,6.3.79,12.92-.71,18.15-4.68-.31-2.18-1.52-5.43-2.58-6.64-3.58.26-8.04,1.17-10.44-1.22ZM1120.79,409.54c-5.72-10.22-.88-22.16,9.25-27.46,9.95-5.2,20.44-6.88,32.55-7.07l.13,28.95c-8.9,8.67-35.21,17.56-41.93,5.58Z"/>
  <path class="st0" d="M1418.51,415.94c-21.2.65-28.68-23.26-28.11-39.03l63.86-.03c.38-6.7.1-13.45-.95-19.79-3.01-18.24-17.48-28.81-35.33-29.28-17.64-.47-32.49,7.84-38.61,25.19-5.54,15.71-5.42,33.98.62,49.7,6.45,16.78,21.59,25.7,39,25.21,15.15-.42,28.37-6.48,36.92-19.2l-10.17-7.99c-7.07,9.44-15.56,14.86-27.21,15.22ZM1401.5,343.55c8.64-6.49,21.15-5.79,29.77-.02,5.84,6.45,8.42,13.45,8.76,23.63l-49.56.07c.45-8.91,3.6-18.1,11.03-23.68Z"/>
  <path class="st0" d="M1589.68,400.74c-7.03,9.44-15.54,14.83-27.17,15.21-21.15.69-28.84-23.31-28.06-39.02l64.06-.06c-.29-6.65-.4-12.12-.9-17.25-1.94-19.86-17.4-31.68-36.56-31.83-17.32-.13-31.65,8.16-37.7,25.19-5.49,15.46-5.37,33.39.32,48.99,6.24,17.11,21.57,26.51,39.32,25.94,14.97-.49,28.89-6.41,36.68-19.45l-9.99-7.71ZM1545.02,343.9c8.15-6.53,21.93-6.82,30.02-.09,6.83,5.69,8.37,14.56,8.98,23.37l-49.48.04c.29-8.61,3.26-17.53,10.49-23.33Z"/>
  <path class="st0" d="M1227.89,298.06c7.92-3.24,15.34-1.62,22.66,3.1l6.09-12.26c-9.33-4.55-18.93-5.51-28.7-3-19.88,5.1-23.16,24.92-22.48,43.31l-12.78.46v11.54s12.86.34,12.86.34l.04,84.56h13.97s.1-84.71.1-84.71l21.25-.14,1.22-11.65-22.57-.23c1.01-10.27-2.26-26.97,8.35-31.3Z"/>
  <path class="st0" d="M1493.9,414.9c-4.19-1.68-6.76-8.2-6.77-12.89l-.18-60.13,21.79-.24,1.53-12.09-23.17-.16-.17-24.38h-13.99s-.2,24.34-.2,24.34l-13.68.28.13,12.03,13.56.11.42,65.64c.07,10.88,7.3,18.75,17.81,19.97,7.59.88,14.92-.12,22.34-1.66l-1.35-11.96c-7.14,1.19-12.32,3.44-18.07,1.13Z"/>
  <path class="st0" d="M1098.95,416.15l-7.71-.75c-3.04-.3-5.83-3.21-5.83-6.63l-.05-122.75-14.08.07.1,126.96c0,9,7.21,15.33,15.56,14.55,5.33-.49,9.78-1.82,14.61-3.76-.14-2.13-.76-7.51-2.61-7.69Z"/>
  <path class="st0" d="M1345.76,329.72v96.25c5.09.29,9.44.28,14.2-.15l-.04-96.3-14.16.2Z"/>
  <path class="st0" d="M1354.12,289.62c-5.76-.75-9.59,3.48-9.65,8.8-.05,4.31,3.97,9.01,9.61,8.13,4.8-.74,7.28-5,6.97-9.03-.27-3.52-2.85-7.36-6.94-7.9Z"/>
</svg>