<?xml version="1.0" encoding="UTF-8"?>
<svg id="Camada_1" xmlns="http://www.w3.org/2000/svg" version="1.1" viewBox="0 0 1256 1382.87">
  <!-- Generator: Adobe Illustrator 30.1.0, SVG Export Plug-In . SVG Version: 2.1.1 Build 109)  -->
  <defs>
    <style>
      .st0 {
        fill: red;
      }
    </style>
  </defs>
  <path class="st0" d="M97.87,867.98c-39.39,42.75-59.81,89.36-56.72,148.45,1.29,24.61,5.14,48.3,15.72,70.63,27.53,58.15,78.09,97.43,135.2,124.62,9.53,4.54,48.09,23.62,54.17,28.12.22.16-.78,1.1-1.07,1.26-31.5,17.6-61.89,35.78-91.93,55.95-24.71,16.6-46.78,35.22-67.36,56.73-8.88,9.29-17.19,19-24.89,29.12h230.91c14.29-40.21,38.14-77.61,70.67-101.36,49.67,4.97,98.74,11.74,148.01,20.41,89.05,15.67,176.96,34.08,264.57,55.97,25.78,6.44,50.23,14.64,74.28,24.98h348.66c-2.05-25.76-7.2-50.95-16.51-73.43-15.39-37.12-39.89-68.86-71.06-94.11-25.35-20.54-52.79-36.93-82.82-49.9-75.51-32.63-160.48-51.64-241.67-65.32l-132.47-22.31-157.31-28.65c-35.36-6.44-69.11-15.32-103.4-25.62-26.28-7.89-113.01-36.99-116.12-68.16-2.14-21.46,2.88-43.11,13.88-61.58,12.08-20.28,27.67-37.55,45.22-52.84,54.49,24.28,120.65,38.47,179.67,43.18,38.75,3.1,76.52,4.64,115.51,3.45,34.64-1.06,67.86-7.34,101.07-16.81,77.69-22.15,149.01-62.44,207.11-118.82,38.85-37.7,70.38-82.64,92.97-131.84,34.74-75.66,37.24-161.94,26.48-243.17-5.31-37.18-15.58-71.99-30.96-106.04-9.33-21.69-20.74-40.99-35.43-60.34l213.65,34.29,49.61-220.88v-2.11c-68.93-.14-138.02,5.44-206.75,16.11-51.74,8.03-101.84,20.7-151.64,35.4l-94.54-38.25C734.58,7.62,638.92-2.12,566.18,1.34l-12.23.58c-42.53,2.02-84.12,6.75-125.8,15.85-72.58,15.84-141.84,43.73-201.14,88.82-56.53,42.98-100.56,100.13-126.38,166.42-30.01,77.03-31.5,167.79-19.24,248.64,17.3,108.95,76.06,188.03,164.38,252.41-54.92,22.4-107.08,50.75-147.9,93.92ZM414.48,632.58l159.23-437.09,159.81,438.08c-.33,2.9-1.56,4.91-3.66,6.73l-156.18-117.68-155.18,117.11c-2.85-1.55-4.65-3.76-4.02-7.14Z"/>
</svg>