<?xml version="1.0" encoding="UTF-8"?>
<svg id="Camada_1" xmlns="http://www.w3.org/2000/svg" version="1.1" viewBox="0 0 1256 1813">
  <!-- Generator: Adobe Illustrator 30.1.0, SVG Export Plug-In . SVG Version: 2.1.1 Build 109)  -->
  <defs>
    <style>
      .st0 {
        fill: red;
      }
    </style>
  </defs>
  <path class="st0" d="M1255.53,21.88v2.11l-49.61,220.88-213.65-34.29c14.69,19.34,26.1,38.65,35.43,60.34,15.37,34.05,25.64,68.86,30.96,106.04,10.76,81.23,8.26,167.51-26.48,243.17-22.59,49.2-54.12,94.14-92.97,131.84-58.11,56.38-129.42,96.68-207.11,118.82-33.21,9.47-66.43,15.75-101.07,16.81-38.99,1.19-76.76-.36-115.51-3.45-59.02-4.71-125.18-18.9-179.67-43.18-17.55,15.3-33.14,32.57-45.22,52.84-11,18.46-16.02,40.12-13.88,61.58,3.11,31.17,89.84,60.27,116.12,68.16,34.3,10.3,68.05,19.18,103.4,25.62l157.31,28.65,132.47,22.31c81.19,13.67,166.15,32.68,241.67,65.32,30.02,12.97,57.46,29.36,82.82,49.9,31.17,25.25,55.67,56.99,71.06,94.11,21.5,51.86,20.81,118.21,11.07,172.61-4.81,26.88-12.77,51.98-24.57,76.47-23.18,48.1-56.65,89.4-98.69,122.3-30.38,23.78-63.37,42.95-99.05,57.92-88.32,37.05-183.88,57.91-279.09,66.68-29.7,2.74-58.42,4.26-88.13,5.63l-14.99.69-28.18.24c-.75,0-2.78.77-2.86,1.02h-77.94l-31.7-1.55c-55.11-2.7-109.58-7.05-164-17.39-83.77-15.91-184.71-47.35-240.86-115.13-25.04-30.23-39.5-66.8-41.71-105.96-2.04-36.06,3.71-80.31,17.14-114.2,15.6-39.37,38.64-74.47,67.86-105.01,20.58-21.52,42.65-40.14,67.36-56.73,30.04-20.18,60.43-38.36,91.93-55.95.3-.17,1.29-1.1,1.07-1.26-6.08-4.5-44.65-23.58-54.17-28.12-57.11-27.2-107.67-66.48-135.2-124.62-10.57-22.33-14.43-46.02-15.72-70.63-3.09-59.09,17.32-105.71,56.72-148.45,40.82-43.17,92.98-71.52,147.9-93.92-88.32-64.38-147.08-143.46-164.38-252.41-12.25-80.85-10.76-171.61,19.24-248.64,25.82-66.29,69.85-123.44,126.38-166.42,59.3-45.09,128.56-72.98,201.14-88.82,41.68-9.1,83.27-13.83,125.8-15.85l12.23-.58c72.74-3.46,168.4,6.28,236.42,33.8l94.54,38.25c49.8-14.7,99.9-27.37,151.64-35.4,68.72-10.67,137.82-16.25,206.75-16.11ZM573.68,522.61l156.18,117.68c2.1-1.83,3.33-3.83,3.66-6.73l-159.81-438.08-159.23,437.09c-.63,3.38,1.17,5.6,4.02,7.14l155.18-117.11ZM851.6,1598.81c18.02-11.9,34.06-25.45,46.51-43.35,19.9-28.61,29.59-63.26,27.24-98.18s-43.52-60.22-72.56-72.97c-25.13-11.04-50.66-19.67-77.64-26.41-87.61-21.89-175.52-40.29-264.57-55.97-49.27-8.67-98.34-15.44-148.01-20.41-54.03,39.45-84.16,116.54-86.22,181.64-2.07,25.03,3.69,48.33,16.32,69.85,30.14,51.32,81.74,84.9,136.35,106.16,39.6,15.42,80.47,22.65,123.07,22.04,40.04-.57,78.83-1.92,118.5-6.64,58.55-6.97,131.4-22.99,181-55.75Z"/>
</svg>